<?xml version="1.0" encoding="UTF-8"?><svg id="Layer_2" xmlns="http://www.w3.org/2000/svg" viewBox="0 0 772.67 248.96"><defs><style>.cls-1{fill:#fa5a50;stroke-width:0px;}</style></defs><g id="Layer_1-2"><path class="cls-1" d="m0,125.12C0,47.38,55.29.63,130.17.63c60.66,0,108.38,30.02,122.28,89.41h-58.13c-6.63-36.33-28.13-62.55-63.19-62.55-42.65,0-68.25,40.12-68.25,90.05,0,56.87,28.44,92.57,77.09,92.57,43.93,0,72.36-28.44,80.25-72.35h33.81c-9.47,68.25-57.19,111.21-127.96,111.21C49.93,248.96,0,198.42,0,125.12Z"/><path class="cls-1" d="m266.73,242.65c11.38-8.84,13.91-23.07,13.91-48.03V54.03c0-25.59-2.53-39.18-13.91-48.03v-1.27h87.52v1.27c-11.36,8.84-13.9,22.43-13.9,48.03v140.59c0,24.95,2.53,39.18,13.9,48.03v1.26h-87.52v-1.26Z"/><path class="cls-1" d="m561.94,4.73h210.73v44.23c-34.75-13.59-52.76-19.9-73.93-19.9h-1.58v165.56c0,24.95,2.53,39.18,13.91,48.03v1.26h-87.21v-1.26c11.38-8.84,13.9-23.07,13.9-48.03V29.07h-1.26c-21.48,0-39.49,6.31-74.56,19.9V4.73Z"/><path class="cls-1" d="m366.94,179.93c0-33.58,22.18-57.02,56.71-70.32-15.21-17.43-24.08-32.95-24.08-51.96,0-36.11,30.1-57.65,69.37-57.65,43.09,0,70.34,27.56,73.82,69.69h-44.35c-.31-26.61-9.5-48.15-30.1-48.15-14.89,0-24.08,9.82-24.08,25.35s9.19,29.46,35.48,56.07l53.22,53.54c3.17-13.94,5.07-29.14,5.39-44.35l47.52-.32v7.6c-10.45,20.59-20.92,40.55-32.31,58.28l61.13,61.45v4.76h-60.19l-29.14-29.79c-20.58,20.92-45.61,34.22-78.56,34.22-46.89,0-79.83-26.62-79.83-68.43Zm102.33,36.42c18.06,0,31.68-6.33,42.13-16.78l-74.45-75.71c-13.93,9.82-20.6,24.71-20.6,41.18,0,29.77,20.6,51.31,52.91,51.31Z"/></g></svg>